<svg width="16" height="18" viewBox="0 0 16 18" fill="none" xmlns="http://www.w3.org/2000/svg">
<path d="M8 3.99764C7.54167 3.99764 7.14931 3.83445 6.82292 3.50806C6.49653 3.18167 6.33333 2.78931 6.33333 2.33097C6.33333 1.87264 6.49653 1.48028 6.82292 1.15389C7.14931 0.827501 7.54167 0.664307 8 0.664307C8.45833 0.664307 8.85069 0.827501 9.17708 1.15389C9.50347 1.48028 9.66667 1.87264 9.66667 2.33097C9.66667 2.78931 9.50347 3.18167 9.17708 3.50806C8.85069 3.83445 8.45833 3.99764 8 3.99764ZM5.5 17.331V6.49764C4.66667 6.42819 3.81944 6.32403 2.95833 6.18514C2.09722 6.04625 1.27778 5.87264 0.5 5.66431L0.916667 3.99764C2 4.28931 3.15278 4.50111 4.375 4.63306C5.59722 4.765 6.80556 4.83097 8 4.83097C9.19444 4.83097 10.4028 4.765 11.625 4.63306C12.8472 4.50111 14 4.28931 15.0833 3.99764L15.5 5.66431C14.7222 5.87264 13.9028 6.04625 13.0417 6.18514C12.1806 6.32403 11.3333 6.42819 10.5 6.49764V17.331H8.83333V12.331H7.16667V17.331H5.5Z" fill="#ADA3FC"/>
</svg>
