<svg width="24" height="20" viewBox="0 0 24 20" fill="none" xmlns="http://www.w3.org/2000/svg">
<path d="M21.9732 2.14689V3.50412H20.0524V2.14689V1.89689H19.8024H2.85673H2.60673V2.14689V17.1477V17.3977H2.85673H19.8024H20.0524V17.1477V15.7905H21.9732V17.1477C21.9732 17.6597 21.7714 18.0978 21.3464 18.474C20.9205 18.851 20.4105 19.0407 19.8024 19.0407H2.85673C2.24862 19.0407 1.73859 18.851 1.31274 18.474L1.14703 18.6612L1.31273 18.474C0.887765 18.0978 0.685913 17.6597 0.685913 17.1477V2.14689C0.685913 1.63495 0.887765 1.1968 1.31273 0.820599C1.73859 0.443617 2.24862 0.253906 2.85673 0.253906H19.8024C20.4105 0.253906 20.9205 0.443617 21.3464 0.820598C21.7714 1.1968 21.9732 1.63495 21.9732 2.14689ZM21.0128 13.1118H21.2628V12.8618V6.43285V6.18285H21.0128H12.54H12.29V6.43285V12.8618V13.1118H12.54H21.0128ZM12.54 14.7548C11.9319 14.7548 11.4218 14.5651 10.996 14.1881C10.571 13.8119 10.3692 13.3737 10.3692 12.8618V6.43285C10.3692 5.92091 10.571 5.48276 10.996 5.10656C11.4218 4.72958 11.9319 4.53987 12.54 4.53987H21.0128C21.6209 4.53987 22.131 4.72958 22.5568 5.10656C22.9818 5.48276 23.1836 5.92091 23.1836 6.43285V12.8618C23.1836 13.3737 22.9818 13.8119 22.5568 14.1881C22.131 14.5651 21.6209 14.7548 21.0128 14.7548H12.54ZM17.2915 10.5986C16.9876 10.8677 16.6191 11.0046 16.1712 11.0046C15.7233 11.0046 15.3548 10.8677 15.0508 10.5986C14.748 10.3305 14.6056 10.0178 14.6056 9.64732C14.6056 9.27688 14.748 8.96413 15.0508 8.69605C15.3548 8.42696 15.7233 8.29008 16.1712 8.29008C16.6191 8.29008 16.9876 8.42696 17.2915 8.69605C17.5944 8.96413 17.7368 9.27688 17.7368 9.64732C17.7368 10.0178 17.5944 10.3305 17.2915 10.5986Z" fill="#2C2A63" stroke="#F0EEFF" stroke-width="0.5"/>
</svg>
