<svg width="14" height="23" viewBox="0 0 14 23" fill="none" xmlns="http://www.w3.org/2000/svg">
<path d="M2 19.2475H1.85V19.3975V20.3975V20.5475H2H12H12.15V20.3975V19.3975V19.2475H12H2ZM1.85 17.3975V17.5475H2H12H12.15V17.3975V5.39746V5.24746H12H2H1.85V5.39746V17.3975ZM1.85 3.39746V3.54746H2H12H12.15V3.39746V2.39746V2.24746H12H2H1.85V2.39746V3.39746ZM4.15 13.7475V12.5475H9.85V13.7475H4.15ZM3.15 10.7475V9.54746H10.85V10.7475H3.15ZM2 22.2475C1.4901 22.2475 1.05733 22.0677 0.693566 21.7039C0.329805 21.3401 0.15 20.9074 0.15 20.3975V2.39746C0.15 1.88756 0.329805 1.45479 0.693566 1.09103C1.05733 0.727266 1.4901 0.547461 2 0.547461H12C12.5099 0.547461 12.9427 0.727266 13.3064 1.09103C13.6702 1.45479 13.85 1.88756 13.85 2.39746V20.3975C13.85 20.9074 13.6702 21.3401 13.3064 21.7039C12.9427 22.0677 12.5099 22.2475 12 22.2475H2Z" fill="#2C2A63" stroke="#F0EEFF" stroke-width="0.3"/>
</svg>
