<svg width="21" height="20" viewBox="0 0 21 20" fill="none" xmlns="http://www.w3.org/2000/svg">
<path d="M3.06152 18.2H8.86152V19.8H3.06152C2.28063 19.8 1.62335 19.529 1.07794 18.9836C0.532545 18.4382 0.261523 17.7809 0.261523 17V14.2H3.06152H3.26152V14V0.2H17.8615V8.81033C17.5817 8.79841 17.2995 8.81684 17.0154 8.86535C16.7572 8.90942 16.5059 8.97835 16.2615 9.07201V2V1.8H16.0615H5.06152H4.86152V2V14V14.2H5.06152H10.5787L8.97868 15.8H2.06152H1.86152V16V17C1.86152 17.3337 1.97658 17.6229 2.2076 17.8539C2.43863 18.0849 2.72782 18.2 3.06152 18.2ZM16.7276 11.5667L16.7279 11.5664C16.8591 11.4353 17.0013 11.3438 17.1549 11.288C17.3177 11.2287 17.478 11.2 17.6365 11.2C17.8108 11.2 17.9767 11.2325 18.1358 11.2976C18.2928 11.3619 18.4375 11.4589 18.5701 11.5914L19.4908 12.5121C19.6075 12.6443 19.6983 12.7903 19.7639 12.9507C19.8299 13.112 19.8615 13.2697 19.8615 13.425C19.8615 13.5837 19.8327 13.749 19.7726 13.9218C19.7163 14.0837 19.6248 14.2289 19.4951 14.3586L14.0537 19.8H11.2615V17.0081L16.7276 11.5667ZM12.3615 18.5V18.7H12.5615H13.5115H13.5948L13.6535 18.6408L16.6785 15.5908L16.815 15.4532L16.6817 15.3125L16.2317 14.8375L16.2319 14.8372L16.2241 14.8298L15.7491 14.3798L15.6083 14.2465L15.4707 14.383L12.4207 17.408L12.3615 17.4667V17.55V18.5ZM6.26152 6.8V5.2H14.8615V6.8H6.26152ZM6.26152 9.8V8.2H14.8615V9.8H6.26152Z" fill="#ADA3FC" stroke="white" stroke-width="0.4"/>
</svg>
