<svg width="23" height="22" viewBox="0 0 23 22" fill="none" xmlns="http://www.w3.org/2000/svg">
<path d="M12.7266 16.2401H15.2226V16.1633L10.9326 11.6828L10.9586 11.606H11.2186C12.1546 11.606 12.9303 11.3243 13.5456 10.7611C14.1609 10.1978 14.5379 9.54064 14.6766 8.78962H15.7166V7.58627H14.6506C14.5986 7.33024 14.5076 7.08701 14.3776 6.85659C14.2476 6.62616 14.0873 6.4 13.8966 6.17811H15.7166V4.97476H7.08461V6.43414H11.1406C11.5913 6.43414 11.9596 6.54508 12.2456 6.76698C12.5316 6.98887 12.7266 7.26197 12.8306 7.58627H7.08461V8.78962H12.8566C12.7526 9.13099 12.5533 9.42543 12.2586 9.67292C11.9639 9.92042 11.5653 10.0442 11.0626 10.0442H8.46261V11.6828L12.7266 16.2401ZM11.4006 20.8487C9.96194 20.8487 8.60994 20.5798 7.34461 20.0422C6.07928 19.5045 4.97861 18.7748 4.04261 17.8531C3.10661 16.9314 2.36561 15.8475 1.81961 14.6015C1.27361 13.3555 1.00061 12.0241 1.00061 10.6074C1.00061 9.19073 1.27361 7.85937 1.81961 6.61336C2.36561 5.36734 3.10661 4.28348 4.04261 3.36177C4.97861 2.44006 6.07928 1.71037 7.34461 1.17271C8.60994 0.635043 9.96194 0.366211 11.4006 0.366211C12.8393 0.366211 14.1913 0.635043 15.4566 1.17271C16.7219 1.71037 17.8226 2.44006 18.7586 3.36177C19.6946 4.28348 20.4356 5.36734 20.9816 6.61336C21.5276 7.85937 21.8006 9.19073 21.8006 10.6074C21.8006 12.0241 21.5276 13.3555 20.9816 14.6015C20.4356 15.8475 19.6946 16.9314 18.7586 17.8531C17.8226 18.7748 16.7219 19.5045 15.4566 20.0422C14.1913 20.5798 12.8393 20.8487 11.4006 20.8487ZM11.4006 18.8004C13.7233 18.8004 15.6906 18.0067 17.3026 16.4193C18.9146 14.8319 19.7206 12.8946 19.7206 10.6074C19.7206 8.32023 18.9146 6.38293 17.3026 4.79554C15.6906 3.20815 13.7233 2.41446 11.4006 2.41446C9.07794 2.41446 7.11061 3.20815 5.49861 4.79554C3.88661 6.38293 3.08061 8.32023 3.08061 10.6074C3.08061 12.8946 3.88661 14.8319 5.49861 16.4193C7.11061 18.0067 9.07794 18.8004 11.4006 18.8004Z" fill="#2C2A63" stroke="#F0EEFF" stroke-width="0.5"/>
</svg>
