<svg width="21" height="21" viewBox="0 0 21 21" fill="none" xmlns="http://www.w3.org/2000/svg">
<rect x="1.15039" y="1.22803" width="19" height="19.001" rx="9.5" fill="#F2F4F5"/>
<rect x="1.15039" y="1.22803" width="19" height="19.001" rx="9.5" stroke="#8DBCD3"/>
<rect width="1" height="0.000976562" transform="translate(10.6504 10.728)" fill="#F2F4F5"/>
<path d="M13.2237 11.1499C13.4567 10.9138 13.4542 10.5335 13.218 10.3004L9.36983 6.50346C9.13369 6.27045 8.75337 6.273 8.52036 6.50915C8.28736 6.74529 8.28991 7.12561 8.52605 7.35861L11.9467 10.7337L8.57158 14.1544C8.33858 14.3905 8.34113 14.7708 8.57727 15.0038C8.81342 15.2368 9.19374 15.2343 9.42674 14.9981L13.2237 11.1499ZM12.6544 11.3297L12.8002 11.3287L12.7921 10.1274L12.6464 10.1283L12.6544 11.3297Z" fill="#4E4D4D"/>
</svg>
