<svg width="15" height="17" viewBox="0 0 15 17" fill="none" xmlns="http://www.w3.org/2000/svg">
<path d="M-0.000976562 16.7275V13.7275H14.999V16.7275H-0.000976562ZM2.99902 10.7275H4.04902L9.89902 4.89629L8.83027 3.82754L2.99902 9.67754V10.7275ZM1.49902 12.2275V9.04004L9.89902 0.658789C10.0365 0.521289 10.1959 0.415039 10.3771 0.340039C10.5584 0.265039 10.749 0.227539 10.949 0.227539C11.149 0.227539 11.3428 0.265039 11.5303 0.340039C11.7178 0.415039 11.8865 0.527539 12.0365 0.677539L13.0678 1.72754C13.2178 1.86504 13.3271 2.02754 13.3959 2.21504C13.4646 2.40254 13.499 2.59629 13.499 2.79629C13.499 2.98379 13.4646 3.16816 13.3959 3.34941C13.3271 3.53066 13.2178 3.69629 13.0678 3.84629L4.68652 12.2275H1.49902Z" fill="#4E4D4D"/>
</svg>
