<svg width="22" height="22" viewBox="0 0 22 22" fill="none" xmlns="http://www.w3.org/2000/svg">
<path d="M8.08732 14.0243C7.71925 14.3923 7.28431 14.5729 6.76897 14.5729C6.25362 14.5729 5.81868 14.3923 5.45061 14.0243C5.08255 13.6562 4.90197 13.2213 4.90197 12.7059C4.90197 12.1906 5.08255 11.7556 5.45061 11.3876C5.81868 11.0195 6.25362 10.8389 6.76897 10.8389C7.28431 10.8389 7.71925 11.0195 8.08732 11.3876C8.45539 11.7556 8.63597 12.1906 8.63597 12.7059C8.63597 13.2213 8.45539 13.6562 8.08732 14.0243ZM16.5553 14.0243C16.1873 14.3923 15.7523 14.5729 15.237 14.5729C14.7216 14.5729 14.2867 14.3923 13.9186 14.0243C13.5505 13.6562 13.37 13.2213 13.37 12.7059C13.37 12.1906 13.5505 11.7556 13.9186 11.3876C14.2867 11.0195 14.7216 10.8389 15.237 10.8389C15.7523 10.8389 16.1873 11.0195 16.5553 11.3876C16.9234 11.7556 17.104 12.1906 17.104 12.7059C17.104 13.2213 16.9234 13.6562 16.5553 14.0243ZM12.3213 7.67326C11.9533 8.04133 11.5183 8.22191 11.003 8.22191C10.4876 8.22191 10.0527 8.04133 9.68462 7.67326C9.31655 7.30519 9.13597 6.87025 9.13597 6.35491C9.13597 5.83956 9.31655 5.40462 9.68462 5.03655C10.0527 4.66848 10.4876 4.48791 11.003 4.48791C11.5183 4.48791 11.9533 4.66848 12.3213 5.03655C12.6894 5.40462 12.87 5.83956 12.87 6.35491C12.87 6.87025 12.6894 7.30519 12.3213 7.67326ZM11.003 20.9239C9.57125 20.9239 8.22906 20.6524 6.97387 20.1108C5.71382 19.5671 4.62025 18.8304 3.69086 17.901C2.76147 16.9716 2.0248 15.8781 1.48108 14.618C0.939455 13.3628 0.667969 12.0206 0.667969 10.5889C0.667969 9.15719 0.939456 7.815 1.48108 6.5598C2.0248 5.29976 2.76147 4.20619 3.69086 3.2768C4.62025 2.3474 5.71382 1.61073 6.97387 1.06702C8.22906 0.525393 9.57125 0.253906 11.003 0.253906C12.4347 0.253906 13.7769 0.525393 15.0321 1.06702C16.2921 1.61073 17.3857 2.3474 18.3151 3.2768C19.2445 4.20619 19.9811 5.29976 20.5249 6.5598C21.0665 7.815 21.338 9.15719 21.338 10.5889C21.338 12.0206 21.0665 13.3628 20.5249 14.618C19.9811 15.8781 19.2445 16.9716 18.3151 17.901C17.3857 18.8304 16.2921 19.5671 15.0321 20.1108C13.7769 20.6524 12.4347 20.9239 11.003 20.9239ZM11.003 19.3069C13.4319 19.3069 15.4982 18.4612 17.1867 16.7727C18.8753 15.0841 19.721 13.0178 19.721 10.5889C19.721 8.16002 18.8753 6.09368 17.1867 4.40514C15.4982 2.7166 13.4319 1.87091 11.003 1.87091C8.57408 1.87091 6.50775 2.7166 4.8192 4.40514C3.13066 6.09368 2.28497 8.16002 2.28497 10.5889C2.28497 13.0178 3.13066 15.0841 4.8192 16.7727C6.50775 18.4612 8.57408 19.3069 11.003 19.3069Z" fill="#2C2A63" stroke="#F0EEFF" stroke-width="0.5"/>
</svg>
