<svg width="21" height="17" viewBox="0 0 21 17" fill="none" xmlns="http://www.w3.org/2000/svg">
<path d="M0.453125 15.3978C0.453125 15.0958 0.542986 14.8062 0.702939 14.5926C0.862892 14.3791 1.07983 14.2591 1.30604 14.2591H20.0702C20.2964 14.2591 20.5134 14.3791 20.6733 14.5926C20.8333 14.8062 20.9231 15.0958 20.9231 15.3978C20.9231 15.6998 20.8333 15.9895 20.6733 16.203C20.5134 16.4166 20.2964 16.5365 20.0702 16.5365H1.30604C1.07983 16.5365 0.862892 16.4166 0.702939 16.203C0.542986 15.9895 0.453125 15.6998 0.453125 15.3978ZM0.453125 8.56563C0.453125 8.26363 0.542986 7.97399 0.702939 7.76045C0.862892 7.5469 1.07983 7.42693 1.30604 7.42693H20.0702C20.2964 7.42693 20.5134 7.5469 20.6733 7.76045C20.8333 7.97399 20.9231 8.26363 20.9231 8.56563C20.9231 8.86763 20.8333 9.15726 20.6733 9.37081C20.5134 9.58436 20.2964 9.70433 20.0702 9.70433H1.30604C1.07983 9.70433 0.862892 9.58436 0.702939 9.37081C0.542986 9.15726 0.453125 8.86763 0.453125 8.56563ZM0.453125 1.73343C0.453125 1.43142 0.542986 1.14179 0.702939 0.928244C0.862892 0.714697 1.07983 0.594727 1.30604 0.594727H20.0702C20.2964 0.594727 20.5134 0.714697 20.6733 0.928244C20.8333 1.14179 20.9231 1.43142 20.9231 1.73343C20.9231 2.03543 20.8333 2.32506 20.6733 2.53861C20.5134 2.75216 20.2964 2.87213 20.0702 2.87213H1.30604C1.07983 2.87213 0.862892 2.75216 0.702939 2.53861C0.542986 2.32506 0.453125 2.03543 0.453125 1.73343Z" fill="#4E4D4D"/>
</svg>
