<svg width="26" height="23" viewBox="0 0 26 23" fill="none" xmlns="http://www.w3.org/2000/svg">
<mask id="path-1-inside-1_120_926" fill="white">
<path d="M12.8235 20.2696C12.9011 20.2696 12.9787 20.2514 13.0562 20.215C13.1338 20.1785 13.192 20.1421 13.2308 20.1056L22.7748 11.1379C23.0076 10.9192 23.1773 10.6731 23.284 10.3997C23.3907 10.1263 23.444 9.85291 23.444 9.5795C23.444 9.28787 23.3907 9.00991 23.284 8.74562C23.1773 8.48132 23.0076 8.24893 22.7748 8.04843L17.8282 3.40055C17.6149 3.18182 17.3675 3.02234 17.0862 2.92209C16.805 2.82184 16.5091 2.77171 16.1988 2.77171C15.9078 2.77171 15.6168 2.82184 15.3258 2.92209C15.0349 3.02234 14.773 3.18182 14.5402 3.40055L14.2201 3.70129L16.3734 5.75183C16.6643 6.00701 16.8777 6.29864 17.0135 6.62673C17.1493 6.95481 17.2172 7.30113 17.2172 7.66567C17.2172 8.4312 16.9408 9.0737 16.3879 9.59317C15.8351 10.1126 15.1513 10.3724 14.3365 10.3724C13.9486 10.3724 13.5751 10.3086 13.2163 10.181C12.8574 10.0534 12.5422 9.86202 12.2706 9.60684L10.0883 7.58364L4.99624 12.3682C4.93805 12.4229 4.8944 12.4822 4.8653 12.5459C4.8362 12.6097 4.82166 12.6781 4.82166 12.751C4.82166 12.8968 4.87985 13.029 4.99624 13.1474C5.11263 13.2659 5.24842 13.3252 5.4036 13.3252C5.4812 13.3252 5.55879 13.3069 5.63639 13.2705C5.71398 13.234 5.77217 13.1976 5.81097 13.1611L9.76823 9.4428L11.3977 10.9739L7.46953 14.6922C7.41133 14.7469 7.36769 14.8061 7.33859 14.8699C7.30949 14.9337 7.29494 15.002 7.29494 15.0749C7.29494 15.2208 7.35314 15.3484 7.46953 15.4577C7.58592 15.5671 7.7217 15.6218 7.87689 15.6218C7.95448 15.6218 8.03208 15.6035 8.10967 15.5671C8.18726 15.5306 8.24546 15.4942 8.28426 15.4577L12.2415 11.7667L13.871 13.2978L9.94281 17.0161C9.88462 17.0526 9.84097 17.1073 9.81187 17.1802C9.78278 17.2531 9.76823 17.326 9.76823 17.3989C9.76823 17.5447 9.82642 17.6723 9.94281 17.7817C10.0592 17.891 10.195 17.9457 10.3502 17.9457C10.4278 17.9457 10.5005 17.932 10.5684 17.9047C10.6363 17.8773 10.6993 17.8363 10.7575 17.7817L14.7148 14.0907L16.3443 15.6218L12.387 19.3401C12.3288 19.3947 12.2852 19.454 12.2561 19.5178C12.227 19.5816 12.2124 19.6499 12.2124 19.7228C12.2124 19.8686 12.2755 19.9962 12.4016 20.1056C12.5276 20.215 12.6683 20.2696 12.8235 20.2696ZM12.7944 22.4569C12.0766 22.4569 11.4413 22.2336 10.8885 21.787C10.3356 21.3405 10.0107 20.78 9.91372 20.1056C9.25417 20.0145 8.70132 19.7593 8.25516 19.3401C7.809 18.9208 7.53742 18.4014 7.44043 17.7817C6.78089 17.6905 6.23288 17.4308 5.79642 17.0025C5.35996 16.5741 5.09323 16.0592 4.99624 15.4577C4.2591 15.3666 3.65776 15.0658 3.1922 14.5555C2.72664 14.0451 2.49386 13.4436 2.49386 12.751C2.49386 12.3865 2.5666 12.0356 2.71209 11.6984C2.85758 11.3612 3.06611 11.065 3.33768 10.8098L10.0883 4.49417L13.9001 8.07577C13.9389 8.13045 13.9971 8.17147 14.0747 8.19881C14.1522 8.22615 14.2298 8.23982 14.3074 8.23982C14.482 8.23982 14.6275 8.18969 14.7439 8.08944C14.8603 7.9892 14.9185 7.85705 14.9185 7.69301C14.9185 7.6201 14.9039 7.54719 14.8748 7.47428C14.8457 7.40137 14.8021 7.34669 14.7439 7.31024L10.583 3.40055C10.3696 3.18182 10.1222 3.02234 9.84097 2.92209C9.5597 2.82184 9.26387 2.77171 8.9535 2.77171C8.66252 2.77171 8.37155 2.82184 8.08057 2.92209C7.7896 3.02234 7.52772 3.18182 7.29494 3.40055L3.1922 7.2829C3.01761 7.44694 2.87212 7.63833 2.75573 7.85705C2.63934 8.07577 2.56175 8.2945 2.52295 8.51322C2.48416 8.73195 2.48416 8.95523 2.52295 9.18306C2.56175 9.4109 2.63934 9.62507 2.75573 9.82557L1.06808 11.4113C0.738309 10.9921 0.495829 10.5319 0.340643 10.0306C0.185456 9.52938 0.127261 9.02358 0.166058 8.51322C0.204855 8.00287 0.340643 7.50618 0.573423 7.02316C0.806203 6.54015 1.12628 6.10726 1.53364 5.72449L5.63639 1.86948C6.10194 1.45026 6.62085 1.13128 7.1931 0.912559C7.76535 0.693835 8.35215 0.584473 8.9535 0.584473C9.55485 0.584473 10.1416 0.693835 10.7139 0.912559C11.2861 1.13128 11.7954 1.45026 12.2415 1.86948L12.5616 2.17022L12.8817 1.86948C13.3472 1.45026 13.8661 1.13128 14.4384 0.912559C15.0106 0.693835 15.5974 0.584473 16.1988 0.584473C16.8001 0.584473 17.3869 0.693835 17.9592 0.912559C18.5314 1.13128 19.0406 1.45026 19.4868 1.86948L24.4043 6.49002C24.8504 6.90925 25.1899 7.39226 25.4227 7.93907C25.6555 8.48588 25.7718 9.04181 25.7718 9.60684C25.7718 10.1719 25.6555 10.7232 25.4227 11.2609C25.1899 11.7986 24.8504 12.2771 24.4043 12.6963L14.8603 21.6367C14.5887 21.8918 14.2735 22.0923 13.9146 22.2382C13.5558 22.384 13.1823 22.4569 12.7944 22.4569Z"/>
</mask>
<path d="M12.8235 20.2696C12.9011 20.2696 12.9787 20.2514 13.0562 20.215C13.1338 20.1785 13.192 20.1421 13.2308 20.1056L22.7748 11.1379C23.0076 10.9192 23.1773 10.6731 23.284 10.3997C23.3907 10.1263 23.444 9.85291 23.444 9.5795C23.444 9.28787 23.3907 9.00991 23.284 8.74562C23.1773 8.48132 23.0076 8.24893 22.7748 8.04843L17.8282 3.40055C17.6149 3.18182 17.3675 3.02234 17.0862 2.92209C16.805 2.82184 16.5091 2.77171 16.1988 2.77171C15.9078 2.77171 15.6168 2.82184 15.3258 2.92209C15.0349 3.02234 14.773 3.18182 14.5402 3.40055L14.2201 3.70129L16.3734 5.75183C16.6643 6.00701 16.8777 6.29864 17.0135 6.62673C17.1493 6.95481 17.2172 7.30113 17.2172 7.66567C17.2172 8.4312 16.9408 9.0737 16.3879 9.59317C15.8351 10.1126 15.1513 10.3724 14.3365 10.3724C13.9486 10.3724 13.5751 10.3086 13.2163 10.181C12.8574 10.0534 12.5422 9.86202 12.2706 9.60684L10.0883 7.58364L4.99624 12.3682C4.93805 12.4229 4.8944 12.4822 4.8653 12.5459C4.8362 12.6097 4.82166 12.6781 4.82166 12.751C4.82166 12.8968 4.87985 13.029 4.99624 13.1474C5.11263 13.2659 5.24842 13.3252 5.4036 13.3252C5.4812 13.3252 5.55879 13.3069 5.63639 13.2705C5.71398 13.234 5.77217 13.1976 5.81097 13.1611L9.76823 9.4428L11.3977 10.9739L7.46953 14.6922C7.41133 14.7469 7.36769 14.8061 7.33859 14.8699C7.30949 14.9337 7.29494 15.002 7.29494 15.0749C7.29494 15.2208 7.35314 15.3484 7.46953 15.4577C7.58592 15.5671 7.7217 15.6218 7.87689 15.6218C7.95448 15.6218 8.03208 15.6035 8.10967 15.5671C8.18726 15.5306 8.24546 15.4942 8.28426 15.4577L12.2415 11.7667L13.871 13.2978L9.94281 17.0161C9.88462 17.0526 9.84097 17.1073 9.81187 17.1802C9.78278 17.2531 9.76823 17.326 9.76823 17.3989C9.76823 17.5447 9.82642 17.6723 9.94281 17.7817C10.0592 17.891 10.195 17.9457 10.3502 17.9457C10.4278 17.9457 10.5005 17.932 10.5684 17.9047C10.6363 17.8773 10.6993 17.8363 10.7575 17.7817L14.7148 14.0907L16.3443 15.6218L12.387 19.3401C12.3288 19.3947 12.2852 19.454 12.2561 19.5178C12.227 19.5816 12.2124 19.6499 12.2124 19.7228C12.2124 19.8686 12.2755 19.9962 12.4016 20.1056C12.5276 20.215 12.6683 20.2696 12.8235 20.2696ZM12.7944 22.4569C12.0766 22.4569 11.4413 22.2336 10.8885 21.787C10.3356 21.3405 10.0107 20.78 9.91372 20.1056C9.25417 20.0145 8.70132 19.7593 8.25516 19.3401C7.809 18.9208 7.53742 18.4014 7.44043 17.7817C6.78089 17.6905 6.23288 17.4308 5.79642 17.0025C5.35996 16.5741 5.09323 16.0592 4.99624 15.4577C4.2591 15.3666 3.65776 15.0658 3.1922 14.5555C2.72664 14.0451 2.49386 13.4436 2.49386 12.751C2.49386 12.3865 2.5666 12.0356 2.71209 11.6984C2.85758 11.3612 3.06611 11.065 3.33768 10.8098L10.0883 4.49417L13.9001 8.07577C13.9389 8.13045 13.9971 8.17147 14.0747 8.19881C14.1522 8.22615 14.2298 8.23982 14.3074 8.23982C14.482 8.23982 14.6275 8.18969 14.7439 8.08944C14.8603 7.9892 14.9185 7.85705 14.9185 7.69301C14.9185 7.6201 14.9039 7.54719 14.8748 7.47428C14.8457 7.40137 14.8021 7.34669 14.7439 7.31024L10.583 3.40055C10.3696 3.18182 10.1222 3.02234 9.84097 2.92209C9.5597 2.82184 9.26387 2.77171 8.9535 2.77171C8.66252 2.77171 8.37155 2.82184 8.08057 2.92209C7.7896 3.02234 7.52772 3.18182 7.29494 3.40055L3.1922 7.2829C3.01761 7.44694 2.87212 7.63833 2.75573 7.85705C2.63934 8.07577 2.56175 8.2945 2.52295 8.51322C2.48416 8.73195 2.48416 8.95523 2.52295 9.18306C2.56175 9.4109 2.63934 9.62507 2.75573 9.82557L1.06808 11.4113C0.738309 10.9921 0.495829 10.5319 0.340643 10.0306C0.185456 9.52938 0.127261 9.02358 0.166058 8.51322C0.204855 8.00287 0.340643 7.50618 0.573423 7.02316C0.806203 6.54015 1.12628 6.10726 1.53364 5.72449L5.63639 1.86948C6.10194 1.45026 6.62085 1.13128 7.1931 0.912559C7.76535 0.693835 8.35215 0.584473 8.9535 0.584473C9.55485 0.584473 10.1416 0.693835 10.7139 0.912559C11.2861 1.13128 11.7954 1.45026 12.2415 1.86948L12.5616 2.17022L12.8817 1.86948C13.3472 1.45026 13.8661 1.13128 14.4384 0.912559C15.0106 0.693835 15.5974 0.584473 16.1988 0.584473C16.8001 0.584473 17.3869 0.693835 17.9592 0.912559C18.5314 1.13128 19.0406 1.45026 19.4868 1.86948L24.4043 6.49002C24.8504 6.90925 25.1899 7.39226 25.4227 7.93907C25.6555 8.48588 25.7718 9.04181 25.7718 9.60684C25.7718 10.1719 25.6555 10.7232 25.4227 11.2609C25.1899 11.7986 24.8504 12.2771 24.4043 12.6963L14.8603 21.6367C14.5887 21.8918 14.2735 22.0923 13.9146 22.2382C13.5558 22.384 13.1823 22.4569 12.7944 22.4569Z" fill="#2C2A63" stroke="#F0EEFF" mask="url(#path-1-inside-1_120_926)"/>
</svg>
