<svg width="16" height="16" viewBox="0 0 16 16" fill="none" xmlns="http://www.w3.org/2000/svg">
<path d="M8.38804 0.48719C8.33713 0.43615 8.27665 0.395655 8.21006 0.368024C8.14347 0.340394 8.07209 0.326172 8 0.326172C7.92791 0.326172 7.85653 0.340394 7.78994 0.368024C7.72335 0.395655 7.66287 0.43615 7.61196 0.48719L1.03504 7.06411C0.984176 7.1151 0.943861 7.17562 0.916401 7.2422C0.88894 7.30878 0.874872 7.38013 0.875001 7.45215V15.1252C0.875001 15.2706 0.932745 15.41 1.03553 15.5128C1.13831 15.6156 1.27772 15.6733 1.42308 15.6733H6.35577C6.50113 15.6733 6.64053 15.6156 6.74332 15.5128C6.8461 15.41 6.90385 15.2706 6.90385 15.1252V10.7406H9.09615V15.1252C9.09615 15.2706 9.1539 15.41 9.25668 15.5128C9.35947 15.6156 9.49887 15.6733 9.64423 15.6733H14.5769C14.7223 15.6733 14.8617 15.6156 14.9645 15.5128C15.0673 15.41 15.125 15.2706 15.125 15.1252V7.45215C15.1251 7.38013 15.1111 7.30878 15.0836 7.2422C15.0561 7.17562 15.0158 7.1151 14.965 7.06411L13.4808 5.58102V1.97138C13.4808 1.82602 13.423 1.68662 13.3202 1.58383C13.2175 1.48105 13.0781 1.42331 12.9327 1.42331H11.8365C11.6912 1.42331 11.5518 1.48105 11.449 1.58383C11.3462 1.68662 11.2885 1.82602 11.2885 1.97138V3.38871L8.38804 0.48719ZM1.97115 14.5771V7.67905L8 1.65021L14.0288 7.67905V14.5771H10.1923V10.1925C10.1923 10.0472 10.1346 9.90777 10.0318 9.80498C9.929 9.7022 9.78959 9.64446 9.64423 9.64446H6.35577C6.21041 9.64446 6.07101 9.7022 5.96822 9.80498C5.86544 9.90777 5.80769 10.0472 5.80769 10.1925V14.5771H1.97115Z" fill="#2C2A63"/>
</svg>
