<svg width="15" height="15" viewBox="0 0 44 43" fill="none" xmlns="http://www.w3.org/2000/svg">
<rect x="0.5" width="43" height="43" rx="21.5" fill="#3700B3"/>
<path fill-rule="evenodd" clip-rule="evenodd" d="M14.6837 19.1837C14.7418 19.1255 14.8108 19.0793 14.8868 19.0477C14.9627 19.0162 15.0442 19 15.1264 19C15.2087 19 15.2901 19.0162 15.3661 19.0477C15.4421 19.0793 15.5111 19.1255 15.5691 19.1837L22.6302 26.246L29.6912 19.1837C29.7493 19.1256 29.8183 19.0795 29.8943 19.048C29.9703 19.0165 30.0517 19.0003 30.1339 19.0003C30.2161 19.0003 30.2975 19.0165 30.3735 19.048C30.4495 19.0795 30.5185 19.1256 30.5766 19.1837C30.6348 19.2418 30.6809 19.3109 30.7123 19.3868C30.7438 19.4628 30.76 19.5442 30.76 19.6264C30.76 19.7086 30.7438 19.7901 30.7123 19.866C30.6809 19.942 30.6348 20.011 30.5766 20.0691L23.0729 27.5729C23.0148 27.6311 22.9458 27.6773 22.8698 27.7088C22.7939 27.7404 22.7124 27.7566 22.6302 27.7566C22.5479 27.7566 22.4665 27.7404 22.3905 27.7088C22.3145 27.6773 22.2455 27.6311 22.1874 27.5729L14.6837 20.0691C14.6255 20.0111 14.5793 19.9421 14.5478 19.8661C14.5162 19.7901 14.5 19.7087 14.5 19.6264C14.5 19.5442 14.5162 19.4627 14.5478 19.3868C14.5793 19.3108 14.6255 19.2418 14.6837 19.1837Z" fill="white"/>
</svg>
