<svg width="10" height="15" viewBox="0 0 10 15" fill="none" xmlns="http://www.w3.org/2000/svg">
<path d="M1.95954 12.7616H1.80954V12.9116V13.5544V13.7044H1.95954H8.38811H8.53811V13.5544V12.9116V12.7616H8.38811H1.95954ZM1.80954 11.6258V11.7758H1.95954H8.38811H8.53811V11.6258V3.91155V3.76155H8.38811H1.95954H1.80954V3.91155V11.6258ZM1.80954 2.62584V2.77584H1.95954H8.38811H8.53811V2.62584V1.98298V1.83298H8.38811H1.95954H1.80954V1.98298V2.62584ZM3.39526 9.22584V8.56155H6.9524V9.22584H3.39526ZM2.7524 7.29727V6.63298H7.59526V7.29727H2.7524ZM1.95954 14.6901C1.64607 14.6901 1.38145 14.5803 1.15757 14.3564C0.933693 14.1325 0.823828 13.8679 0.823828 13.5544V1.98298C0.823828 1.66951 0.933693 1.40489 1.15757 1.18101C1.38145 0.957131 1.64607 0.847266 1.95954 0.847266H8.38811C8.70159 0.847266 8.9662 0.957131 9.19008 1.18101C9.41396 1.40489 9.52383 1.66951 9.52383 1.98298V13.5544C9.52383 13.8679 9.41396 14.1325 9.19008 14.3564C8.9662 14.5803 8.70159 14.6901 8.38811 14.6901H1.95954Z" fill="#3D1D41" stroke="#F1F9FF" stroke-width="0.3"/>
</svg>
