<svg width="20" height="28" viewBox="0 0 20 28" fill="none" xmlns="http://www.w3.org/2000/svg">
<path d="M9.5625 27.5137C10.2445 27.5137 10.8985 27.2225 11.3808 26.7043C11.863 26.1861 12.1339 25.4833 12.1339 24.7504H6.99107C6.99107 25.4833 7.26199 26.1861 7.74423 26.7043C8.22646 27.2225 8.88051 27.5137 9.5625 27.5137ZM9.5625 8.05744L8.53779 8.27988C7.37523 8.5339 6.33014 9.21202 5.57961 10.1993C4.82909 11.1866 4.41929 12.4224 4.41964 13.6973C4.41964 14.565 4.24736 16.7327 3.8295 18.8674C3.62379 19.9271 3.34607 21.031 2.97707 21.9871H16.1479C15.7789 21.031 15.5025 19.9285 15.2955 18.8674C14.8776 16.7327 14.7054 14.565 14.7054 13.6973C14.7054 12.4227 14.2955 11.1872 13.545 10.2002C12.7945 9.21315 11.7496 8.53523 10.5872 8.28127L9.5625 8.05744ZM17.5596 21.9871C17.8464 22.6047 18.1781 23.0938 18.5625 23.3688H0.5625C0.946929 23.0938 1.27864 22.6047 1.56536 21.9871C2.7225 19.5002 3.13393 14.9131 3.13393 13.6973C3.13393 10.3537 5.34536 7.56281 8.28321 6.92588C8.26527 6.73377 8.28499 6.53975 8.34111 6.35633C8.39724 6.17291 8.48851 6.00417 8.60904 5.86099C8.72958 5.71781 8.8767 5.60337 9.04093 5.52504C9.20515 5.44672 9.38283 5.40625 9.5625 5.40625C9.74217 5.40625 9.91985 5.44672 10.0841 5.52504C10.2483 5.60337 10.3954 5.71781 10.516 5.86099C10.6365 6.00417 10.7278 6.17291 10.7839 6.35633C10.84 6.53975 10.8597 6.73377 10.8418 6.92588C12.2952 7.24304 13.6019 8.09048 14.5404 9.32458C15.4789 10.5587 15.9914 12.1035 15.9911 13.6973C15.9911 14.9131 16.4025 19.5002 17.5596 21.9871Z" fill="#4E4D4D"/>
<rect x="12.4375" y="0.0742188" width="7" height="7" rx="3.5" fill="#39A1FF"/>
</svg>
