<svg width="31" height="24" viewBox="0 0 31 24" fill="none" xmlns="http://www.w3.org/2000/svg">
<path d="M30.5133 8.36025V18.1235H28.4075V9.56459V8.99513L27.8995 9.25231L25.0937 10.6726L24.9018 10.7697V10.9848V18.5153L15.4316 23.2468L5.96151 18.5153V10.9848V10.7697L5.76958 10.6726L0.777532 8.14562L15.4316 0.789088L30.5133 8.36025ZM15.2758 13.235L15.4316 13.3124L15.5874 13.235L25.1971 8.45774L25.8276 8.14433L25.1971 7.83092L15.5874 3.05368L15.4316 2.97623L15.2758 3.05368L5.66613 7.83092L5.03569 8.14433L5.66613 8.45774L15.2758 13.235ZM15.2759 21.0141L15.4316 21.0915L15.5874 21.0141L22.6018 17.528L22.796 17.4315V17.2146V12.3405V11.7711L22.288 12.0283L15.4316 15.4989L8.57533 12.0283L8.06726 11.7711V12.3405V17.2146V17.4315L8.26149 17.528L15.2759 21.0141Z" fill="#2C2A63" stroke="#F0EEFF" stroke-width="0.7"/>
</svg>
