<svg width="21" height="21" viewBox="0 0 21 21" fill="none" xmlns="http://www.w3.org/2000/svg">
<mask id="path-1-outside-1_357_2375" maskUnits="userSpaceOnUse" x="0.5" y="0.728516" width="20" height="20" fill="black">
<rect fill="white" x="0.5" y="0.728516" width="20" height="20"/>
<path d="M18.5 10.7285C18.5 12.8502 17.6571 14.8851 16.1569 16.3854C14.6566 17.8857 12.6217 18.7285 10.5 18.7285C8.37827 18.7285 6.34344 17.8857 4.84315 16.3854C3.34285 14.8851 2.5 12.8502 2.5 10.7285C2.5 8.60678 3.34285 6.57195 4.84315 5.07166C6.34344 3.57137 8.37827 2.72852 10.5 2.72852C12.6217 2.72852 14.6566 3.57137 16.1569 5.07166C17.6571 6.57195 18.5 8.60678 18.5 10.7285ZM14.53 7.69852C14.4586 7.62733 14.3735 7.57129 14.2799 7.53373C14.1863 7.49617 14.0861 7.47787 13.9853 7.47993C13.8845 7.48198 13.7851 7.50435 13.6932 7.54568C13.6012 7.58702 13.5185 7.64648 13.45 7.72052L9.977 12.1455L7.884 10.0515C7.74182 9.91904 7.55378 9.84691 7.35948 9.85034C7.16518 9.85377 6.97979 9.93248 6.84238 10.0699C6.70497 10.2073 6.62625 10.3927 6.62283 10.587C6.6194 10.7813 6.69152 10.9693 6.824 11.1115L9.47 13.7585C9.54128 13.8297 9.62616 13.8857 9.71958 13.9234C9.813 13.961 9.91305 13.9794 10.0137 13.9776C10.1144 13.9757 10.2137 13.9536 10.3057 13.9125C10.3977 13.8714 10.4804 13.8123 10.549 13.7385L14.541 8.74852C14.6771 8.60701 14.7523 8.41779 14.7504 8.22147C14.7485 8.02516 14.6698 7.8374 14.531 7.69852H14.53Z"/>
</mask>
<path d="M18.5 10.7285C18.5 12.8502 17.6571 14.8851 16.1569 16.3854C14.6566 17.8857 12.6217 18.7285 10.5 18.7285C8.37827 18.7285 6.34344 17.8857 4.84315 16.3854C3.34285 14.8851 2.5 12.8502 2.5 10.7285C2.5 8.60678 3.34285 6.57195 4.84315 5.07166C6.34344 3.57137 8.37827 2.72852 10.5 2.72852C12.6217 2.72852 14.6566 3.57137 16.1569 5.07166C17.6571 6.57195 18.5 8.60678 18.5 10.7285ZM14.53 7.69852C14.4586 7.62733 14.3735 7.57129 14.2799 7.53373C14.1863 7.49617 14.0861 7.47787 13.9853 7.47993C13.8845 7.48198 13.7851 7.50435 13.6932 7.54568C13.6012 7.58702 13.5185 7.64648 13.45 7.72052L9.977 12.1455L7.884 10.0515C7.74182 9.91904 7.55378 9.84691 7.35948 9.85034C7.16518 9.85377 6.97979 9.93248 6.84238 10.0699C6.70497 10.2073 6.62625 10.3927 6.62283 10.587C6.6194 10.7813 6.69152 10.9693 6.824 11.1115L9.47 13.7585C9.54128 13.8297 9.62616 13.8857 9.71958 13.9234C9.813 13.961 9.91305 13.9794 10.0137 13.9776C10.1144 13.9757 10.2137 13.9536 10.3057 13.9125C10.3977 13.8714 10.4804 13.8123 10.549 13.7385L14.541 8.74852C14.6771 8.60701 14.7523 8.41779 14.7504 8.22147C14.7485 8.02516 14.6698 7.8374 14.531 7.69852H14.53Z" fill="#08BA32"/>
<path d="M18.5 10.7285H20.5H18.5ZM10.5 18.7285V20.7285V18.7285ZM2.5 10.7285H0.5H2.5ZM10.5 2.72852V0.728516V2.72852ZM14.53 7.69852L13.1183 9.1152L13.7036 9.69852H14.53V7.69852ZM13.45 7.72052L11.9817 6.3625L11.9267 6.42197L11.8767 6.4857L13.45 7.72052ZM9.977 12.1455L8.56245 13.5594L10.1574 15.1551L11.5503 13.3803L9.977 12.1455ZM7.884 10.0515L9.29855 8.63764L9.27344 8.61251L9.24744 8.58829L7.884 10.0515ZM6.824 11.1115L5.36078 12.475L5.38471 12.5006L5.40952 12.5255L6.824 11.1115ZM9.47 13.7585L8.05552 15.1725L8.05708 15.174L9.47 13.7585ZM10.549 13.7385L12.0134 15.1007L12.0642 15.0461L12.1107 14.9879L10.549 13.7385ZM14.541 8.74852L13.0995 7.36212L13.0363 7.42788L12.9793 7.49913L14.541 8.74852ZM14.531 7.69852L15.9458 6.28491L15.3599 5.69852H14.531V7.69852ZM16.5 10.7285C16.5 12.3198 15.8679 13.8459 14.7426 14.9712L17.5711 17.7996C19.4464 15.9242 20.5 13.3807 20.5 10.7285H16.5ZM14.7426 14.9712C13.6174 16.0964 12.0913 16.7285 10.5 16.7285V20.7285C13.1522 20.7285 15.6957 19.6749 17.5711 17.7996L14.7426 14.9712ZM10.5 16.7285C8.9087 16.7285 7.38258 16.0964 6.25736 14.9712L3.42893 17.7996C5.3043 19.6749 7.84783 20.7285 10.5 20.7285V16.7285ZM6.25736 14.9712C5.13214 13.8459 4.5 12.3198 4.5 10.7285H0.5C0.5 13.3807 1.55357 15.9242 3.42893 17.7996L6.25736 14.9712ZM4.5 10.7285C4.5 9.13722 5.13214 7.61109 6.25736 6.48588L3.42893 3.65745C1.55357 5.53281 0.5 8.07635 0.5 10.7285H4.5ZM6.25736 6.48588C7.38258 5.36066 8.9087 4.72852 10.5 4.72852V0.728516C7.84783 0.728516 5.3043 1.78208 3.42893 3.65745L6.25736 6.48588ZM10.5 4.72852C12.0913 4.72852 13.6174 5.36066 14.7426 6.48588L17.5711 3.65745C15.6957 1.78208 13.1522 0.728516 10.5 0.728516V4.72852ZM14.7426 6.48588C15.8679 7.61109 16.5 9.13722 16.5 10.7285H20.5C20.5 8.07635 19.4464 5.53281 17.5711 3.65745L14.7426 6.48588ZM15.9417 6.28183C15.6798 6.02083 15.368 5.81533 15.0248 5.67762L13.535 9.38984C13.3791 9.32724 13.2373 9.23383 13.1183 9.1152L15.9417 6.28183ZM15.0248 5.67762C14.6817 5.53991 14.3143 5.47281 13.9446 5.48034L14.0261 9.47951C13.858 9.48294 13.691 9.45244 13.535 9.38984L15.0248 5.67762ZM13.9446 5.48034C13.5749 5.48787 13.2106 5.56987 12.8733 5.72145L14.513 9.36992C14.3597 9.43882 14.1941 9.47609 14.0261 9.47951L13.9446 5.48034ZM12.8733 5.72145C12.536 5.87302 12.2328 6.09105 11.9817 6.3625L14.9183 9.07853C14.8041 9.20191 14.6663 9.30102 14.513 9.36992L12.8733 5.72145ZM11.8767 6.4857L8.40371 10.9107L11.5503 13.3803L15.0233 8.95533L11.8767 6.4857ZM11.3916 10.7316L9.29855 8.63764L6.46945 11.4654L8.56245 13.5594L11.3916 10.7316ZM9.24744 8.58829C8.72614 8.10253 8.03663 7.83808 7.3242 7.85065L7.39476 11.85C7.07092 11.8557 6.75751 11.7355 6.52056 11.5147L9.24744 8.58829ZM7.3242 7.85065C6.61176 7.86322 5.93201 8.15183 5.42816 8.65568L8.25659 11.4841C8.02757 11.7131 7.7186 11.8443 7.39476 11.85L7.3242 7.85065ZM5.42816 8.65568C4.92432 9.15953 4.63571 9.83927 4.62314 10.5517L8.62251 10.6223C8.6168 10.9461 8.48561 11.2551 8.25659 11.4841L5.42816 8.65568ZM4.62314 10.5517C4.61057 11.2641 4.87502 11.9537 5.36078 12.475L8.28722 9.74807C8.50802 9.98503 8.62823 10.2984 8.62251 10.6223L4.62314 10.5517ZM5.40952 12.5255L8.05552 15.1725L10.8845 12.3446L8.23848 9.69757L5.40952 12.5255ZM8.05708 15.174C8.31844 15.4349 8.62968 15.6405 8.97222 15.7785L10.4669 12.0683C10.6226 12.131 10.7641 12.2244 10.8829 12.343L8.05708 15.174ZM8.97222 15.7785C9.31475 15.9165 9.68158 15.9841 10.0508 15.9772L9.97668 11.9779C10.1445 11.9748 10.3113 12.0055 10.4669 12.0683L8.97222 15.7785ZM10.0508 15.9772C10.42 15.9704 10.7841 15.8892 11.1213 15.7386L9.4901 12.0864C9.64337 12.0179 9.80886 11.981 9.97668 11.9779L10.0508 15.9772ZM11.1213 15.7386C11.4585 15.588 11.7619 15.3711 12.0134 15.1007L9.08459 12.3763C9.19891 12.2534 9.33682 12.1548 9.4901 12.0864L11.1213 15.7386ZM12.1107 14.9879L16.1027 9.99791L12.9793 7.49913L8.98726 12.4891L12.1107 14.9879ZM15.9825 10.1349C16.4815 9.61607 16.7572 8.92225 16.7503 8.20243L12.7505 8.24052C12.7474 7.91333 12.8727 7.59796 13.0995 7.36212L15.9825 10.1349ZM16.7503 8.20243C16.7435 7.48259 16.4546 6.79415 15.9458 6.28491L13.1162 9.11212C12.8849 8.88065 12.7536 8.56772 12.7505 8.24052L16.7503 8.20243ZM14.531 5.69852H14.53V9.69852H14.531V5.69852Z" fill="#CEF5D7" mask="url(#path-1-outside-1_357_2375)"/>
</svg>
